<?xml version="1.0" encoding="UTF-8"?>
<svg id="Layer_1" data-name="Layer 1" xmlns="http://www.w3.org/2000/svg" viewBox="0 0 767.72 474.13">
  <defs>
    <style>
      .cls-1 {
        fill: #fff;
      }

      .cls-1, .cls-2 {
        stroke-width: 0px;
      }

      .cls-2 {
        fill: #dd8a37;
      }
    </style>
  </defs>
  <g>
    <path class="cls-1" d="M173.44,473.44c-37.1,0-74.2.03-111.3-.03-6.28,0-12.55-.29-18.82-.56-4.38-.19-4.79-.68-5.01-5.07-.06-1.33-.02-2.66-.02-3.99,0-94.75,0-189.5.01-284.25,0-2.47-.03-4.97.3-7.4.68-4.93,1.55-5.73,6.43-6.36,1.88-.24,3.79-.27,5.69-.3,7.8-.11,15.6-.22,23.4-.25,5.53-.02,5.62.12,5.72,5.84.03,1.52,0,3.04,0,4.57,0,65.64,0,131.28,0,196.92,0,9.25-.54,8.42,8.25,8.4,63.74-.11,127.48-.72,191.21-.19,36.71.3,66.27-13.73,91.08-39.9,19.79-20.87,32.06-45.3,37.7-73.46,5.43-27.12,4.13-53.71-4.49-79.89-10.04-30.49-29.03-54.74-54.83-73.15-19.38-13.83-41.56-21.04-65.79-21.07-76.86-.12-153.73-.39-230.59-.61-1.9,0-3.81.03-5.71-.1-3.68-.26-4.6-1.14-5.02-4.82-.17-1.51-.12-3.04-.12-4.56,0-24.73,0-49.47,0-74.2,0-.38,0-.76,0-1.14.07-6.65.19-6.82,6.64-6.91,10.65-.16,21.31-.32,31.96-.35,68.49-.18,136.99-.02,205.48-.61,36.8-.32,70.01,10.16,100.64,29.96,19.3,12.47,36.29,27.65,51.76,44.56,2.68,2.93,4.93,6.28,7.23,9.54,20.73,29.36,36.34,61.07,44,96.4,2.02,9.31,3.71,18.69,4.17,28.2,1.29,26.43,2.18,52.87-2.86,79.07-5.26,27.36-15.89,52.65-29.25,76.99-14.91,27.15-35.02,49.86-59.26,68.65-26.84,20.81-57.5,33.66-91.16,39.03-8.67,1.38-17.4,1.73-26.16,1.73-37.1-.01-74.2,0-111.3,0v-.68Z"/>
    <path class="cls-2" d="M394.96,473.83c10.65-5.28,21.16-10.03,31.41-15.38,13.58-7.09,25.98-15.8,37.07-26.34,14.76-14.03,29.41-28.17,39.89-45.91,1.32-2.23,2.95-3.31,5.54-2.97.93.12,1.9.02,2.85.02,81.39.04,162.77.08,244.16.12,7.86,0,7.17-.35,7.17,7.02.01,25.48,0,50.96,0,76.44,0,1.33-.08,2.67,0,3.99.11,1.93-.86,2.77-2.67,2.83-1.52.05-3.04.07-4.56.07-116.38.04-232.75.07-349.13.1-3.91,0-7.82,0-11.73,0Z"/>
    <path class="cls-2" d="M401,.36c3.94,0,7.89,0,11.83,0,100.22,0,200.44,0,300.65.02,12.55,0,25.1.03,37.65.06,1.52,0,3.04.01,4.56.14,1.53.13,2.41.95,2.37,2.6-.03,1.14.01,2.28.01,3.42,0,26.24,0,52.49,0,78.73,0,1.14-.02,2.28-.04,3.42-.02,1.87-.97,2.78-2.83,2.75-1.33-.02-2.66.01-3.99,0-80.44-.35-160.88-.75-241.32-.94-4.62-.01-7.05-1.62-9.45-5.37-23.86-37.17-55.95-64.81-96.46-82.58-1.02-.45-2.02-.95-3.02-1.43.01-.28.03-.56.04-.83Z"/>
    <path class="cls-2" d="M527.97,282.77c1.78-10.55,3.17-20.1,3.9-29.76,1.37-18.33.25-36.46-3.46-54.45-.19-.93-.24-1.91-.56-2.79-1-2.67.33-3.41,2.67-3.43,2.28-.02,4.56-.08,6.85-.08,74.55.06,149.1.12,223.65.18.57,0,1.14,0,1.71,0,4.92.08,4.98.08,4.98,5.03.02,26.82.02,53.63,0,80.45,0,4.67-.06,4.74-5.17,4.76-27.39.08-54.77.17-82.16.18-47.17,0-94.33-.06-141.5-.09-3.41,0-6.82,0-10.91,0Z"/>
  </g>
  <rect class="cls-1" x="0" y="165.34" width="45" height="308"/>
  <rect class="cls-1" y=".34" width="45" height="92"/>
</svg>